<mxfile host="app.diagrams.net" agent="Mozilla/5.0 (Windows NT 10.0; Win64; x64) AppleWebKit/537.36 (KHTML, like Gecko) Chrome/140.0.0.0 Safari/537.36" version="28.2.5">
  <diagram name="Page-1" id="pDRqvR8C_ONuGjnti2g_">
    <mxGraphModel dx="1683" dy="650" grid="1" gridSize="10" guides="1" tooltips="1" connect="1" arrows="1" fold="1" page="1" pageScale="1" pageWidth="850" pageHeight="1100" math="0" shadow="0">
      <root>
        <mxCell id="0" />
        <mxCell id="1" parent="0" />
        <mxCell id="by1Hj1xScfWAxomrNk3V-3" style="edgeStyle=orthogonalEdgeStyle;rounded=0;orthogonalLoop=1;jettySize=auto;html=1;exitX=0.5;exitY=1;exitDx=0;exitDy=0;entryX=0.5;entryY=0;entryDx=0;entryDy=0;" edge="1" parent="1" source="by1Hj1xScfWAxomrNk3V-1" target="by1Hj1xScfWAxomrNk3V-4">
          <mxGeometry relative="1" as="geometry">
            <mxPoint x="425" y="150" as="targetPoint" />
          </mxGeometry>
        </mxCell>
        <mxCell id="by1Hj1xScfWAxomrNk3V-1" value="LoginFragment Launch" style="rounded=1;whiteSpace=wrap;html=1;" vertex="1" parent="1">
          <mxGeometry x="365" y="50" width="120" height="60" as="geometry" />
        </mxCell>
        <mxCell id="by1Hj1xScfWAxomrNk3V-24" style="edgeStyle=orthogonalEdgeStyle;rounded=0;orthogonalLoop=1;jettySize=auto;html=1;" edge="1" parent="1" source="by1Hj1xScfWAxomrNk3V-4" target="by1Hj1xScfWAxomrNk3V-23">
          <mxGeometry relative="1" as="geometry" />
        </mxCell>
        <mxCell id="by1Hj1xScfWAxomrNk3V-4" value="Show Login" style="rounded=1;whiteSpace=wrap;html=1;" vertex="1" parent="1">
          <mxGeometry x="365" y="140" width="120" height="60" as="geometry" />
        </mxCell>
        <mxCell id="by1Hj1xScfWAxomrNk3V-27" value="" style="edgeStyle=orthogonalEdgeStyle;rounded=0;orthogonalLoop=1;jettySize=auto;html=1;entryX=0.5;entryY=0;entryDx=0;entryDy=0;" edge="1" parent="1" source="by1Hj1xScfWAxomrNk3V-23" target="by1Hj1xScfWAxomrNk3V-33">
          <mxGeometry relative="1" as="geometry">
            <mxPoint x="380" y="330" as="targetPoint" />
            <Array as="points">
              <mxPoint x="425" y="310" />
              <mxPoint x="340" y="310" />
            </Array>
          </mxGeometry>
        </mxCell>
        <mxCell id="by1Hj1xScfWAxomrNk3V-53" value="Yes" style="edgeLabel;html=1;align=center;verticalAlign=middle;resizable=0;points=[];" vertex="1" connectable="0" parent="by1Hj1xScfWAxomrNk3V-27">
          <mxGeometry x="0.3943" relative="1" as="geometry">
            <mxPoint y="9" as="offset" />
          </mxGeometry>
        </mxCell>
        <mxCell id="by1Hj1xScfWAxomrNk3V-29" style="edgeStyle=orthogonalEdgeStyle;rounded=0;orthogonalLoop=1;jettySize=auto;html=1;exitX=0.5;exitY=1;exitDx=0;exitDy=0;entryX=0.5;entryY=0;entryDx=0;entryDy=0;" edge="1" parent="1" source="by1Hj1xScfWAxomrNk3V-23" target="by1Hj1xScfWAxomrNk3V-37">
          <mxGeometry relative="1" as="geometry">
            <mxPoint x="470" y="330" as="targetPoint" />
            <Array as="points">
              <mxPoint x="425" y="310" />
              <mxPoint x="510" y="310" />
            </Array>
          </mxGeometry>
        </mxCell>
        <mxCell id="by1Hj1xScfWAxomrNk3V-54" value="No" style="edgeLabel;html=1;align=center;verticalAlign=middle;resizable=0;points=[];" vertex="1" connectable="0" parent="by1Hj1xScfWAxomrNk3V-29">
          <mxGeometry x="0.4517" y="1" relative="1" as="geometry">
            <mxPoint x="-1" y="11" as="offset" />
          </mxGeometry>
        </mxCell>
        <mxCell id="by1Hj1xScfWAxomrNk3V-23" value="User has an account?" style="ellipse;whiteSpace=wrap;html=1;fontStyle=2" vertex="1" parent="1">
          <mxGeometry x="340" y="230" width="170" height="60" as="geometry" />
        </mxCell>
        <mxCell id="by1Hj1xScfWAxomrNk3V-57" style="edgeStyle=orthogonalEdgeStyle;rounded=0;orthogonalLoop=1;jettySize=auto;html=1;entryX=0;entryY=0.5;entryDx=0;entryDy=0;" edge="1" parent="1" source="by1Hj1xScfWAxomrNk3V-33" target="by1Hj1xScfWAxomrNk3V-58">
          <mxGeometry relative="1" as="geometry">
            <mxPoint x="340" y="540" as="targetPoint" />
          </mxGeometry>
        </mxCell>
        <mxCell id="by1Hj1xScfWAxomrNk3V-33" value="Enter Email/ Password" style="rounded=1;whiteSpace=wrap;html=1;" vertex="1" parent="1">
          <mxGeometry x="280" y="370" width="120" height="40" as="geometry" />
        </mxCell>
        <mxCell id="by1Hj1xScfWAxomrNk3V-50" style="edgeStyle=orthogonalEdgeStyle;rounded=0;orthogonalLoop=1;jettySize=auto;html=1;entryX=0;entryY=0.5;entryDx=0;entryDy=0;" edge="1" parent="1" source="by1Hj1xScfWAxomrNk3V-37" target="by1Hj1xScfWAxomrNk3V-38">
          <mxGeometry relative="1" as="geometry" />
        </mxCell>
        <mxCell id="by1Hj1xScfWAxomrNk3V-37" value="Click on &quot;Don&#39;t have an account?&amp;nbsp;&lt;i&gt;Sign Up&lt;/i&gt;&quot;" style="rounded=1;whiteSpace=wrap;html=1;" vertex="1" parent="1">
          <mxGeometry x="440" y="360" width="140" height="60" as="geometry" />
        </mxCell>
        <mxCell id="by1Hj1xScfWAxomrNk3V-51" style="edgeStyle=orthogonalEdgeStyle;rounded=0;orthogonalLoop=1;jettySize=auto;html=1;entryX=1;entryY=0.5;entryDx=0;entryDy=0;exitX=0.5;exitY=0;exitDx=0;exitDy=0;" edge="1" parent="1" source="by1Hj1xScfWAxomrNk3V-38" target="by1Hj1xScfWAxomrNk3V-4">
          <mxGeometry relative="1" as="geometry">
            <Array as="points">
              <mxPoint x="680" y="320" />
              <mxPoint x="540" y="320" />
              <mxPoint x="540" y="170" />
            </Array>
          </mxGeometry>
        </mxCell>
        <mxCell id="by1Hj1xScfWAxomrNk3V-52" value="Clicks &quot;Log In&quot;" style="edgeLabel;html=1;align=center;verticalAlign=middle;resizable=0;points=[];" vertex="1" connectable="0" parent="by1Hj1xScfWAxomrNk3V-51">
          <mxGeometry x="0.1059" y="1" relative="1" as="geometry">
            <mxPoint x="71" y="26" as="offset" />
          </mxGeometry>
        </mxCell>
        <mxCell id="by1Hj1xScfWAxomrNk3V-55" style="edgeStyle=orthogonalEdgeStyle;rounded=0;orthogonalLoop=1;jettySize=auto;html=1;entryX=0.5;entryY=0;entryDx=0;entryDy=0;" edge="1" parent="1" source="by1Hj1xScfWAxomrNk3V-38" target="by1Hj1xScfWAxomrNk3V-40">
          <mxGeometry relative="1" as="geometry" />
        </mxCell>
        <mxCell id="by1Hj1xScfWAxomrNk3V-38" value="Show Sign Up" style="whiteSpace=wrap;html=1;rounded=1;" vertex="1" parent="1">
          <mxGeometry x="620" y="375" width="120" height="30" as="geometry" />
        </mxCell>
        <mxCell id="by1Hj1xScfWAxomrNk3V-56" style="edgeStyle=orthogonalEdgeStyle;rounded=0;orthogonalLoop=1;jettySize=auto;html=1;entryX=0.5;entryY=0;entryDx=0;entryDy=0;" edge="1" parent="1" source="by1Hj1xScfWAxomrNk3V-40" target="by1Hj1xScfWAxomrNk3V-48">
          <mxGeometry relative="1" as="geometry" />
        </mxCell>
        <mxCell id="by1Hj1xScfWAxomrNk3V-40" value="Enter Name, Email, Password" style="whiteSpace=wrap;html=1;rounded=1;" vertex="1" parent="1">
          <mxGeometry x="620" y="430" width="120" height="30" as="geometry" />
        </mxCell>
        <mxCell id="by1Hj1xScfWAxomrNk3V-59" style="edgeStyle=orthogonalEdgeStyle;rounded=0;orthogonalLoop=1;jettySize=auto;html=1;entryX=1;entryY=0.5;entryDx=0;entryDy=0;" edge="1" parent="1" source="by1Hj1xScfWAxomrNk3V-48" target="by1Hj1xScfWAxomrNk3V-58">
          <mxGeometry relative="1" as="geometry" />
        </mxCell>
        <mxCell id="by1Hj1xScfWAxomrNk3V-48" value="Click Sign Up" style="whiteSpace=wrap;html=1;rounded=1;" vertex="1" parent="1">
          <mxGeometry x="620" y="480" width="120" height="30" as="geometry" />
        </mxCell>
        <mxCell id="by1Hj1xScfWAxomrNk3V-58" value="Launch Home Fragment" style="rounded=1;whiteSpace=wrap;html=1;" vertex="1" parent="1">
          <mxGeometry x="380" y="475" width="120" height="40" as="geometry" />
        </mxCell>
      </root>
    </mxGraphModel>
  </diagram>
</mxfile>
